<mxfile host="Electron" modified="2023-10-09T07:56:18.079Z" agent="Mozilla/5.0 (Macintosh; Intel Mac OS X 10_15_7) AppleWebKit/537.36 (KHTML, like Gecko) draw.io/21.8.2 Chrome/114.0.5735.289 Electron/25.8.1 Safari/537.36" etag="9tjjNp1sBZcGz1NSqBZ5" version="21.8.2" type="device">
  <diagram name="第 1 页" id="fRvKvteRKODSqLEemFU4">
    <mxGraphModel dx="1674" dy="851" grid="1" gridSize="10" guides="1" tooltips="1" connect="1" arrows="1" fold="1" page="1" pageScale="1" pageWidth="827" pageHeight="1169" math="0" shadow="0">
      <root>
        <mxCell id="0" />
        <mxCell id="1" parent="0" />
        <mxCell id="VAcUHvSCIGbBg64OPuve-5" value="" style="rounded=0;whiteSpace=wrap;html=1;" vertex="1" parent="1">
          <mxGeometry x="300" y="160" width="170" height="230" as="geometry" />
        </mxCell>
        <mxCell id="VAcUHvSCIGbBg64OPuve-1" value="Reward" style="text;html=1;strokeColor=none;fillColor=none;align=center;verticalAlign=middle;whiteSpace=wrap;rounded=0;" vertex="1" parent="1">
          <mxGeometry x="250" y="50" width="60" height="30" as="geometry" />
        </mxCell>
        <mxCell id="VAcUHvSCIGbBg64OPuve-7" style="edgeStyle=orthogonalEdgeStyle;rounded=0;orthogonalLoop=1;jettySize=auto;html=1;entryX=0;entryY=0.5;entryDx=0;entryDy=0;" edge="1" parent="1" source="VAcUHvSCIGbBg64OPuve-2" target="VAcUHvSCIGbBg64OPuve-5">
          <mxGeometry relative="1" as="geometry" />
        </mxCell>
        <mxCell id="VAcUHvSCIGbBg64OPuve-2" value="L2 Users" style="rounded=0;whiteSpace=wrap;html=1;" vertex="1" parent="1">
          <mxGeometry x="80" y="245" width="120" height="60" as="geometry" />
        </mxCell>
        <mxCell id="VAcUHvSCIGbBg64OPuve-9" style="edgeStyle=orthogonalEdgeStyle;rounded=0;orthogonalLoop=1;jettySize=auto;html=1;entryX=0;entryY=0.194;entryDx=0;entryDy=0;entryPerimeter=0;" edge="1" parent="1" source="VAcUHvSCIGbBg64OPuve-3" target="VAcUHvSCIGbBg64OPuve-11">
          <mxGeometry relative="1" as="geometry">
            <mxPoint x="590" y="220" as="targetPoint" />
          </mxGeometry>
        </mxCell>
        <mxCell id="VAcUHvSCIGbBg64OPuve-3" value="Sequencer" style="rounded=0;whiteSpace=wrap;html=1;" vertex="1" parent="1">
          <mxGeometry x="330" y="190" width="120" height="60" as="geometry" />
        </mxCell>
        <mxCell id="VAcUHvSCIGbBg64OPuve-12" style="edgeStyle=orthogonalEdgeStyle;rounded=0;orthogonalLoop=1;jettySize=auto;html=1;entryX=0;entryY=0.75;entryDx=0;entryDy=0;" edge="1" parent="1" source="VAcUHvSCIGbBg64OPuve-4" target="VAcUHvSCIGbBg64OPuve-11">
          <mxGeometry relative="1" as="geometry" />
        </mxCell>
        <mxCell id="VAcUHvSCIGbBg64OPuve-4" value="Aggregator" style="rounded=0;whiteSpace=wrap;html=1;" vertex="1" parent="1">
          <mxGeometry x="330" y="290" width="120" height="60" as="geometry" />
        </mxCell>
        <mxCell id="VAcUHvSCIGbBg64OPuve-8" value="L2 tx gas fees" style="text;html=1;strokeColor=none;fillColor=none;align=center;verticalAlign=middle;whiteSpace=wrap;rounded=0;" vertex="1" parent="1">
          <mxGeometry x="180" y="205" width="120" height="30" as="geometry" />
        </mxCell>
        <mxCell id="VAcUHvSCIGbBg64OPuve-11" value="L1 zkEVM.sol" style="rounded=0;whiteSpace=wrap;html=1;" vertex="1" parent="1">
          <mxGeometry x="600" y="185" width="120" height="180" as="geometry" />
        </mxCell>
        <mxCell id="VAcUHvSCIGbBg64OPuve-14" value="L1 sequencing tx gas&amp;nbsp;fees" style="text;html=1;strokeColor=none;fillColor=none;align=center;verticalAlign=middle;whiteSpace=wrap;rounded=0;" vertex="1" parent="1">
          <mxGeometry x="470" y="185" width="120" height="30" as="geometry" />
        </mxCell>
        <mxCell id="VAcUHvSCIGbBg64OPuve-15" value="L2&amp;nbsp; OKB" style="text;html=1;strokeColor=none;fillColor=none;align=center;verticalAlign=middle;whiteSpace=wrap;rounded=0;" vertex="1" parent="1">
          <mxGeometry x="150" y="450" width="120" height="30" as="geometry" />
        </mxCell>
        <mxCell id="VAcUHvSCIGbBg64OPuve-21" value="" style="whiteSpace=wrap;html=1;shape=mxgraph.basic.pentagon;fillColor=#97D077;" vertex="1" parent="1">
          <mxGeometry x="110" y="450" width="30" height="25" as="geometry" />
        </mxCell>
        <mxCell id="VAcUHvSCIGbBg64OPuve-22" value="" style="whiteSpace=wrap;html=1;shape=mxgraph.basic.pentagon;fillColor=#97D077;" vertex="1" parent="1">
          <mxGeometry x="150" y="205" width="30" height="25" as="geometry" />
        </mxCell>
        <mxCell id="VAcUHvSCIGbBg64OPuve-23" value="" style="whiteSpace=wrap;html=1;shape=mxgraph.basic.pentagon;fillColor=#66B2FF;" vertex="1" parent="1">
          <mxGeometry x="110" y="500" width="30" height="25" as="geometry" />
        </mxCell>
        <mxCell id="VAcUHvSCIGbBg64OPuve-24" value="" style="whiteSpace=wrap;html=1;shape=mxgraph.basic.pentagon;fillColor=#66B2FF;" vertex="1" parent="1">
          <mxGeometry x="500" y="150" width="30" height="25" as="geometry" />
        </mxCell>
        <mxCell id="VAcUHvSCIGbBg64OPuve-25" value="L1 aggregation&amp;nbsp;tx gas&amp;nbsp;fees" style="text;html=1;strokeColor=none;fillColor=none;align=center;verticalAlign=middle;whiteSpace=wrap;rounded=0;" vertex="1" parent="1">
          <mxGeometry x="480" y="290" width="120" height="30" as="geometry" />
        </mxCell>
        <mxCell id="VAcUHvSCIGbBg64OPuve-26" value="" style="whiteSpace=wrap;html=1;shape=mxgraph.basic.pentagon;fillColor=#66B2FF;" vertex="1" parent="1">
          <mxGeometry x="500" y="262.5" width="30" height="25" as="geometry" />
        </mxCell>
        <mxCell id="VAcUHvSCIGbBg64OPuve-27" value="L1&amp;nbsp; ET" style="text;html=1;strokeColor=none;fillColor=none;align=center;verticalAlign=middle;whiteSpace=wrap;rounded=0;" vertex="1" parent="1">
          <mxGeometry x="150" y="497.5" width="120" height="30" as="geometry" />
        </mxCell>
      </root>
    </mxGraphModel>
  </diagram>
</mxfile>
